<?xml version="1.0" encoding="UTF-8"?>
<svg version="1.1" xmlns="http://www.w3.org/2000/svg" width="512" height="512">
<path d="M0 0 C2.58763347 3.38584027 3.72407492 6.85213185 5.03710938 10.87573242 C5.31288315 11.68421127 5.58865692 12.49269012 5.87278748 13.32566833 C6.74994093 15.89993082 7.61170244 18.47895454 8.47070312 21.05932617 C9.33429103 23.6428753 10.20134442 26.22500188 11.07933044 28.80369568 C11.62450663 30.4056408 12.16135632 32.01044966 12.68885803 33.61830139 C14.39042196 38.67249426 14.39042196 38.67249426 17.90820312 42.49682617 C24.29017324 43.08722869 29.98986599 41.81179004 36.15820312 40.24682617 C37.0425 40.04186523 37.92679688 39.8369043 38.83789062 39.62573242 C43.5306187 38.45609476 46.95135927 37.58972057 49.90820312 33.49682617 C50.65070313 31.70245117 50.65070313 31.70245117 51.40820312 29.87182617 C52.90820312 26.49682617 52.90820312 26.49682617 54.7409668 25.27246094 C61.74836345 22.76457548 70.63920872 26.70104954 77.421875 28.76831055 C81.67926972 30.01962708 85.41977551 30.97460482 89.90820312 30.49682617 C93.86045527 27.33502446 96.65699494 23.26633211 99.57617188 19.16870117 C100.90820312 17.49682617 100.90820312 17.49682617 102.90820312 16.49682617 C106.75133818 16.13426626 109.09694401 16.00351302 112.43920898 18.03588867 C115.48612997 21.07286717 116.72189054 24.20517074 118.09960938 28.18432617 C118.37159653 28.92384521 118.64358368 29.66336426 118.92381287 30.42529297 C119.7875372 32.77741036 120.63085316 35.13608865 121.47070312 37.49682617 C122.31562229 39.85691403 123.165109 42.21489099 124.02830505 44.56835938 C124.56363952 46.0290442 125.08848757 47.49362827 125.60121155 48.96240234 C128.15776691 55.96108022 131.50330158 58.55109681 138.05273438 61.78198242 C138.65029541 62.0792775 139.24785645 62.37657257 139.86352539 62.68287659 C141.81211282 63.64961752 143.76622782 64.6045529 145.72070312 65.55932617 C147.0845156 66.23306176 148.44803824 66.90738434 149.8112793 67.58227539 C155.89613076 70.58736702 161.99945173 73.55225014 168.12695312 76.46948242 C169.061604 76.91501465 169.99625488 77.36054687 170.95922852 77.81958008 C172.81688914 78.69560888 174.68085722 79.55837281 176.55053711 80.40844727 C181.38611315 82.64115248 185.78913861 85.01407696 190.16210938 88.06323242 C206.83974915 99.11067138 222.01171905 98.5154041 241.43505859 97.01708984 C258.28361234 95.96400366 258.28361234 95.96400366 265.54269409 101.84130859 C267.92413545 104.04809794 270.14168774 106.3511881 272.3019104 108.77389526 C275.02386033 111.6934949 278.09614511 114.19490923 281.15820312 116.74682617 C282.31287246 117.73260775 283.46665711 118.71942753 284.61914062 119.70776367 C288.53043888 123.03385307 292.46669841 126.32547127 296.48632812 129.52026367 C298.90820313 131.49682617 298.90820313 131.49682617 300.76757812 133.34838867 C305.9039957 138.14389358 311.08126889 138.17311535 317.83056641 138.09643555 C321.46983109 138.09973871 323.68722286 138.36699294 326.85351562 140.22729492 C329.10930839 142.71895955 329.65705991 143.89708229 330.09570312 147.18432617 C330.23105469 148.14983398 330.36640625 149.1153418 330.50585938 150.11010742 C330.63863281 151.22772461 330.77140625 152.3453418 330.90820312 153.49682617 C331.09299175 154.84467639 331.27927026 156.19232292 331.46679688 157.53979492 C332.04698175 161.85044089 332.50101534 166.16675658 332.90820312 170.49682617 C333.09189453 172.32793945 333.09189453 172.32793945 333.27929688 174.19604492 C333.59499512 179.743314 333.60209815 183.467527 329.90820312 187.80932617 C328.59968025 189.06487241 327.26500972 190.29362032 325.90820312 191.49682617 C324.52796553 192.88748065 323.1529464 194.283334 321.78320312 195.68432617 C320.49257326 196.95621245 319.20085041 198.22699031 317.90820312 199.49682617 C314.43615103 202.96181567 310.97525776 206.43782168 307.51554871 209.91513062 C304.63599907 212.80814407 301.75372811 215.69844006 298.87133789 218.58862305 C297.35871476 220.10627689 295.84699012 221.62482679 294.33618164 223.14428711 C292.13733784 225.35536136 289.93519075 227.56310055 287.73242188 229.77026367 C287.06756271 230.44028412 286.40270355 231.11030457 285.71769714 231.80062866 C281.84699404 235.67178578 277.8737939 239.3310545 273.67610168 242.84658813 C269.81522218 246.4505111 268.4405069 249.43770628 267.34594727 254.60717773 C267.0787941 255.84236145 266.81164093 257.07754517 266.53639221 258.35015869 C266.39915804 259.00765358 266.26192387 259.66514847 266.12053108 260.34256744 C265.6878163 262.41398604 265.24226843 264.48227512 264.7933197 266.55023193 C263.68036738 271.68917282 262.5887802 276.83260115 261.49786377 281.97625732 C260.57554461 286.32170531 259.644385 290.66507423 258.70144463 295.00609589 C258.26520579 297.03155572 257.84186078 299.05942783 257.41896057 301.08770752 C255.28444135 310.94114546 252.09077785 318.3273979 245.97070312 326.30932617 C241.65318295 332.06650917 237.51243148 337.91788876 233.47070312 343.87182617 C229.10317256 350.28755543 224.72615003 356.69549223 220.28320312 363.05932617 C219.7863501 363.77975098 219.28949707 364.50017578 218.77758789 365.24243164 C218.31280029 365.9051709 217.8480127 366.56791016 217.36914062 367.25073242 C216.9648584 367.83153564 216.56057617 368.41233887 216.14404297 369.01074219 C214.29808066 371.23049181 212.54129689 372.38837268 209.6963501 372.87573242 C208.83588074 372.93631836 207.97541138 372.9969043 207.08886719 373.05932617 C206.11065002 373.13280273 205.13243286 373.2062793 204.12457275 373.28198242 C203.06832703 373.35288086 202.0120813 373.4237793 200.92382812 373.49682617 C199.83487244 373.57803711 198.74591675 373.65924805 197.6239624 373.74291992 C194.13592707 374.00255502 190.64722559 374.25083616 187.15820312 374.49682617 C183.68350992 374.74329928 180.20912764 374.99245919 176.73529053 375.25073242 C174.57324438 375.41140646 172.41068508 375.56535676 170.24761963 375.71166992 C159.5658992 376.50379311 153.67995551 378.81864579 145.57666016 386.01782227 C144.38509119 387.0740887 143.18449512 388.12020734 141.97802734 389.15942383 C139.91570829 390.9397332 137.87868381 392.74562672 135.84570312 394.55932617 C135.19021484 395.12425781 134.53472656 395.68918945 133.859375 396.27124023 C129.51761855 400.23258046 127.68018739 403.61748811 126.90820312 409.49682617 C126.77615479 410.4366333 126.64410645 411.37644043 126.50805664 412.34472656 C125.92181434 416.65902436 125.33663133 420.97107398 124.84765625 425.29760742 C124.69876953 426.36366211 124.54988281 427.4297168 124.39648438 428.52807617 C124.27829346 429.48262695 124.16010254 430.43717773 124.03833008 431.4206543 C120.91432684 439.92409799 111.94556744 446.6060817 105.66992188 452.86791992 C104.69808128 453.84043574 103.72638904 454.81309982 102.75483704 455.78590393 C100.73522925 457.80697422 98.71385345 459.82625417 96.69116211 461.84423828 C94.09744702 464.43221076 91.5083098 467.02470982 88.92044353 469.61852932 C86.92258334 471.61999535 84.9223573 473.61908327 82.92139626 475.61744881 C81.50082768 477.03702695 80.08227117 478.45861765 78.66374207 479.88023376 C77.80557388 480.73524979 76.9474057 481.59026581 76.06323242 482.47119141 C75.30713181 483.22649643 74.55103119 483.98180145 73.77201843 484.75999451 C71.40166853 486.96885005 70.34266589 487.4521431 67.09521484 487.78613281 C57.42029331 486.90787465 47.2424963 473.10652357 40.59765625 466.39208984 C38.75652953 464.5323834 36.90719995 462.68112677 35.05664062 460.83081055 C33.87907914 459.64834381 32.70197785 458.46541858 31.52539062 457.28198242 C30.97446747 456.72994644 30.42354431 456.17791046 29.85592651 455.60914612 C26.56900532 452.2806984 25.11477912 450.56726543 24.22070312 445.93432617 C24.27564376 442.88512101 24.73216782 441.712799 26.68164062 439.32104492 C29.33263941 436.90597645 32.06968451 434.68873244 34.90820312 432.49682617 C35.92011719 431.70276367 36.93203125 430.90870117 37.97460938 430.09057617 C40.67917577 427.98474655 43.40697262 425.91085581 46.13916016 423.84106445 C49.30703039 421.43390278 52.45484415 419.00158394 55.59570312 416.55932617 C56.19608398 416.09864746 56.79646484 415.63796875 57.41503906 415.16333008 C60.10027673 413.07076605 62.0019182 411.35625355 63.90820312 408.49682617 C64.09803491 402.60097873 62.3279512 396.8919917 60.43164062 391.37573242 C60.1853894 390.63703918 59.93913818 389.89834595 59.6854248 389.13726807 C58.8943593 386.77456364 58.08965877 384.4168174 57.28320312 382.05932617 C56.73497802 380.43854784 56.18696425 378.81769802 55.63916016 377.19677734 C52.80819181 368.85781509 49.93822394 360.53221989 46.78320312 352.30932617 C46.5129834 351.5991333 46.24276367 350.88894043 45.96435547 350.15722656 C44.73289861 346.65818745 44.73289861 346.65818745 41.90820312 344.49682617 C38.586531 344.15765432 35.26864156 343.82749886 31.9375 343.59838867 C31.24076172 343.5287793 30.54402344 343.45916992 29.82617188 343.38745117 C29.19477295 343.33621094 28.56337402 343.2849707 27.9128418 343.23217773 C24.61194751 342.02132722 22.62601839 340.51732587 20.90820312 337.49682617 C19.85406351 333.07270719 19.53182063 328.62151111 19.17773438 324.09448242 C18.99230589 322.09217638 18.8068711 320.08987089 18.62106609 318.08759975 C18.36707252 315.28935234 18.13372114 312.48952328 17.90008545 309.68951416 C17.48776213 304.79312216 17.04534853 299.89938363 16.59928894 295.00596619 C16.36415781 292.40355593 16.13783644 289.8003311 15.92134094 287.19630432 C15.76558846 285.41932411 15.76558846 285.41932411 15.60668945 283.60644531 C15.51962234 282.56895645 15.43255524 281.53146759 15.34284973 280.46253967 C14.73042651 276.28380734 14.1620309 272.59392548 10.90820312 269.74682617 C7.37578667 268.27498598 4.11566314 267.95401157 0.31054688 267.70776367 C-3.77412619 265.64882278 -4.6466877 261.65468414 -6.09179688 257.49682617 C-7.45445101 253.20444509 -8.64250527 248.86916969 -9.80273438 244.51831055 C-10.0425 243.66946289 -10.28226563 242.82061523 -10.52929688 241.94604492 C-10.73425781 241.18638428 -10.93921875 240.42672363 -11.15039062 239.64404297 C-12.39884482 236.79649248 -13.63543883 235.43035298 -16.09179688 233.49682617 C-18.77348528 232.45262413 -21.33076299 231.58726034 -24.08398438 230.79760742 C-25.69349959 230.30522699 -27.30286976 229.81237223 -28.91210938 229.3190918 C-31.42159317 228.56580913 -33.93274243 227.81929782 -36.44726562 227.08300781 C-48.3710217 223.5653576 -60.0892083 219.49941474 -69.09179688 210.49682617 C-69.74259377 206.59204479 -70.15106721 203.25252292 -69.84179688 199.30932617 C-69.87434227 196.28610868 -69.87434227 196.28610868 -72.15429688 193.55932617 C-74.9411346 191.14906227 -74.9411346 191.14906227 -78.36035156 191.68408203 C-82.18378926 192.51686299 -85.21936318 193.7284383 -88.73242188 195.43823242 C-89.98080513 196.02809154 -91.22951366 196.61726265 -92.47851562 197.20581055 C-94.40878627 198.12790969 -96.33539607 199.05618943 -98.25634766 199.99755859 C-106.31553623 203.92576642 -112.93874919 206.44408436 -122.09179688 205.49682617 C-123.71677088 205.43365388 -125.34176735 205.37105386 -126.96679688 205.30932617 C-130.16524949 204.88019568 -131.23501009 204.39931931 -134.02929688 202.49682617 C-136.34205954 199.13280775 -136.97900513 196.57116721 -137.53710938 192.58276367 C-138.22567122 189.99338323 -138.88288641 189.01787417 -141.09179688 187.49682617 C-143.87501494 187.29002359 -146.52022539 187.50035864 -149.30273438 187.68432617 C-155.13482014 187.29225318 -158.27223639 183.49374053 -161.96679688 179.30932617 C-162.83433594 178.3322168 -163.701875 177.35510742 -164.59570312 176.34838867 C-165.83126953 174.93686523 -165.83126953 174.93686523 -167.09179688 173.49682617 C-167.76082031 172.74143555 -168.42984375 171.98604492 -169.11914062 171.20776367 C-170.27382983 169.89894746 -171.41907829 168.58171475 -172.55273438 167.25463867 C-174.05019552 165.49915818 -174.05019552 165.49915818 -175.63085938 163.98901367 C-178.29449563 161.26585482 -179.40207491 159.2442219 -179.45507812 155.51245117 C-179.31356664 149.66784904 -177.40134034 144.59975694 -175.34179688 139.18432617 C-174.99375 138.20915039 -174.64570313 137.23397461 -174.28710938 136.22924805 C-171.07481045 127.56198966 -171.07481045 127.56198966 -167.09179688 124.49682617 C-164.47138366 123.72585921 -162.07683526 123.16665604 -159.40429688 122.71557617 C-158.66477783 122.57535034 -157.92525879 122.43512451 -157.16333008 122.29064941 C-154.01304285 121.69380013 -150.85652488 121.13344051 -147.70019531 120.56958008 C-145.3907062 120.1516226 -143.08519978 119.71531596 -140.77929688 119.27807617 C-140.06878174 119.15815308 -139.3582666 119.03822998 -138.6262207 118.91467285 C-135.57486793 118.33441862 -133.27085981 117.61819793 -130.69042969 115.86914062 C-128.51607218 112.64247113 -128.17734315 109.53950833 -127.82617188 105.75854492 C-127.74304749 105.0007222 -127.6599231 104.24289948 -127.57427979 103.46211243 C-127.40156292 101.85500736 -127.23735045 100.24696868 -127.08105469 98.63818359 C-126.84611104 96.22857282 -126.58476459 93.82306061 -126.31835938 91.41674805 C-124.90213544 78.15615418 -124.05013311 65.55911555 -127.40820312 52.51245117 C-128.37430866 48.2505456 -129.09798453 43.79887262 -128.09179688 39.49682617 C-125.89174145 36.30041057 -123.83047895 35.24253957 -120.15039062 34.44995117 C-118.61319633 34.19561206 -117.07244769 33.96209404 -115.52929688 33.74682617 C-114.32527222 33.5668811 -114.32527222 33.5668811 -113.09692383 33.38330078 C-97.14017264 31.1248611 -97.14017264 31.1248611 -92.58398438 34.17651367 C-89.93871826 36.63934764 -87.755476 39.21368851 -85.52929688 42.05932617 C-81.05187599 48.11910269 -81.05187599 48.11910269 -74.41992188 50.98510742 C-69.61474363 50.28012235 -66.00622447 48.09902249 -61.84179688 45.68432617 C-60.61976562 45.00660156 -60.61976562 45.00660156 -59.37304688 44.31518555 C-54.59099765 41.65157747 -54.59099765 41.65157747 -51.09179688 37.49682617 C-50.48920952 31.00495171 -52.38736352 25.8016709 -54.578125 19.81323242 C-55.83500177 16.00472364 -56.44928152 13.41782867 -54.98632812 9.59057617 C-52.96213778 6.2850942 -52.54774382 5.80826634 -49.09179688 4.49682617 C-46.46103932 3.92591182 -43.86541601 3.42700657 -41.21289062 2.98901367 C-40.44558121 2.8586673 -39.67827179 2.72832092 -38.88771057 2.59402466 C-37.26349876 2.32022892 -35.63871848 2.0497872 -34.01342773 1.7824707 C-31.56027715 1.37694743 -29.11030836 0.95519725 -26.66015625 0.53198242 C-4.48172081 -3.22058298 -4.48172081 -3.22058298 0 0 Z " fill="#1DD587" transform="translate(179.091796875,13.503173828125)"/>
<path d="M0 0 C1.61816406 1.31591797 1.61816406 1.31591797 3.015625 2.9921875 C3.54003174 3.6094873 4.06443848 4.22678711 4.60473633 4.86279297 C5.41914185 5.85883545 5.41914185 5.85883545 6.25 6.875 C6.82065186 7.55320801 7.39130371 8.23141602 7.97924805 8.93017578 C9.66661995 10.9424896 11.33628476 12.96810647 13 15 C13.4448877 15.54140625 13.88977539 16.0828125 14.34814453 16.640625 C15.50510132 18.05030382 16.65889045 19.46258066 17.8125 20.875 C18.52277344 21.73480469 19.23304687 22.59460938 19.96484375 23.48046875 C21.33520372 25.17697965 22.66069426 26.91061483 23.94140625 28.67578125 C27.45906115 33.43064035 27.45906115 33.43064035 32.76953125 35.44921875 C34.68464995 35.40050756 36.59932614 35.29543622 38.5078125 35.12890625 C41.82213903 34.95747557 43.52162516 35.84141546 46 38 C47.96459918 40.94689877 48.23098617 41.69577868 48.4375 45 C48.70975274 47.47296238 48.87473195 48.79561528 50.1875 50.9375 C56.28467876 54.51170824 66.20226237 53.99353919 73 53 C78.24210927 51.31520452 83.04124106 48.99613201 87.9375 46.5 C103.48433297 38.73159668 103.48433297 38.73159668 110 40 C112.4609375 41.59375 112.4609375 41.59375 114 44 C114.5390625 47.09375 114.5390625 47.09375 114.625 50.5 C114.65217676 56.11349317 114.65217676 56.11349317 117 61 C119.25345587 62.65583821 121.41221488 64.09414851 123.8125 65.5 C124.4919165 65.90017334 125.17133301 66.30034668 125.87133789 66.71264648 C131.35143088 69.83269475 136.75764561 71.75959839 142.84667969 73.39550781 C147.7909693 74.7834966 152.67431514 76.36561168 157.5625 77.9375 C159.15276001 78.42391968 159.15276001 78.42391968 160.77514648 78.92016602 C161.77876221 79.24428467 162.78237793 79.56840332 163.81640625 79.90234375 C164.71818604 80.18585693 165.61996582 80.46937012 166.54907227 80.76147461 C170.64205511 82.82977842 172.49309193 85.69026748 174.125 89.90673828 C174.558125 91.47270752 174.558125 91.47270752 175 93.0703125 C175.33 94.21371094 175.66 95.35710937 176 96.53515625 C176.66868647 98.93563619 177.33534144 101.33668292 178 103.73828125 C178.33 104.87910156 178.66 106.01992187 179 107.1953125 C179.28875 108.23703613 179.5775 109.27875977 179.875 110.35205078 C181.14235633 113.33506875 182.21897581 114.39869174 185 116 C187.25726651 116.34727177 189.40237593 116.37463349 191.68359375 116.3984375 C195.19682856 117.31081214 196.67895231 119.26447117 199 122 C199.85546875 124.98291016 199.85546875 124.98291016 200.1875 128.4140625 C200.25517578 129.05405182 200.32285156 129.69404114 200.39257812 130.35342407 C200.61904561 132.56729303 200.81023746 134.78269591 201 137 C201.16181477 138.73283596 201.32462015 140.46557963 201.48828125 142.19824219 C202.11030959 148.91123748 202.68473949 155.62820278 203.25 162.34619141 C203.49477943 165.23908269 203.74698632 168.1312564 204 171.0234375 C204.07089844 171.8923764 204.14179688 172.76131531 204.21484375 173.65658569 C204.82373626 181.997138 204.82373626 181.997138 207 190 C211.65611928 191.55203976 216.45272694 191.28612335 221.3359375 191.42578125 C225.68531346 192.10739987 226.93711122 192.86771765 230 196 C231.54691214 199.05353837 232.59732687 202.23281757 233.6640625 205.48046875 C233.98281342 206.40789383 234.30156433 207.33531891 234.62997437 208.29084778 C235.64355458 211.25146257 236.63448872 214.21909763 237.625 217.1875 C238.2980033 219.16521638 238.97246773 221.14243619 239.6484375 223.11914062 C241.45174444 228.40633414 243.23113197 233.70120027 245 239 C245.27976181 239.83411407 245.55952362 240.66822815 245.84776306 241.52761841 C246.11528885 242.32650482 246.38281464 243.12539124 246.65844727 243.94848633 C247.01508202 245.01248405 247.01508202 245.01248405 247.37892151 246.09797668 C248.81986558 250.5107993 249.85336221 254.37034205 249 259 C246.25134215 262.76296894 242.74312522 265.27123314 239 268 C237.45033258 269.20858286 235.90070523 270.41722064 234.35327148 271.62866211 C232.73337042 272.88792736 231.10137174 274.12962487 229.46484375 275.3671875 C225.71655712 278.20565391 222.01111284 281.09723058 218.3125 284 C217.71211914 284.46905762 217.11173828 284.93811523 216.49316406 285.42138672 C211.41682036 289.05767558 211.41682036 289.05767558 209.46484375 294.66601562 C209.59544744 299.23046047 211.42639823 301.33593687 214.57397461 304.48034668 C215.23018799 305.09526978 215.88640137 305.71019287 216.5625 306.34375 C217.56132202 307.32559265 217.56132202 307.32559265 218.58032227 308.32727051 C220.70212033 310.40444493 222.85005055 312.45201684 225 314.5 C226.44713066 315.90698654 227.89246569 317.31582248 229.3359375 318.7265625 C232.87018174 322.17281296 236.42812449 325.59278542 240 329 C238.62800577 332.07644987 237.06323072 334.1854025 234.68359375 336.55932617 C234.00949463 337.23650192 233.33539551 337.91367767 232.64086914 338.6113739 C231.55020142 339.69126335 231.55020142 339.69126335 230.4375 340.79296875 C229.69040771 341.53960281 228.94331543 342.28623688 228.17358398 343.05549622 C226.595627 344.63043531 225.01524347 346.20294642 223.43261719 347.77319336 C221.0039759 350.18355403 218.58345607 352.60184503 216.1640625 355.02148438 C214.63067997 356.54995247 213.09684132 358.07796313 211.5625 359.60546875 C210.83538818 360.33146774 210.10827637 361.05746674 209.35913086 361.8054657 C208.68503174 362.47318497 208.01093262 363.14090424 207.31640625 363.82885742 C206.42610718 364.7134388 206.42610718 364.7134388 205.51782227 365.6158905 C203.34344048 367.59871982 202.15126092 367.98444331 199.18701172 368.28930664 C189.51209018 367.41104848 179.33429318 353.6096974 172.68945312 346.89526367 C170.84832641 345.03555723 168.99899683 343.18430059 167.1484375 341.33398438 C165.97087602 340.15151764 164.79377472 338.96859241 163.6171875 337.78515625 C163.06626434 337.23312027 162.51534119 336.68108429 161.94772339 336.11231995 C158.6608022 332.78387223 157.206576 331.07043926 156.3125 326.4375 C156.36744063 323.38829484 156.8239647 322.21597283 158.7734375 319.82421875 C161.42443628 317.40915028 164.16148139 315.19190626 167 313 C168.01191406 312.2059375 169.02382812 311.411875 170.06640625 310.59375 C172.77097265 308.48792038 175.4987695 306.41402964 178.23095703 304.34423828 C181.39882727 301.9370766 184.54664102 299.50475777 187.6875 297.0625 C188.28788086 296.60182129 188.88826172 296.14114258 189.50683594 295.66650391 C192.1920736 293.57393988 194.09371508 291.85942738 196 289 C196.18983178 283.10415256 194.41974808 277.39516553 192.5234375 271.87890625 C192.27718628 271.14021301 192.03093506 270.40151978 191.77722168 269.64044189 C190.98615618 267.27773747 190.18145564 264.91999123 189.375 262.5625 C188.82677489 260.94172167 188.27876113 259.32087184 187.73095703 257.69995117 C184.89998868 249.36098891 182.03002082 241.03539371 178.875 232.8125 C178.60478027 232.10230713 178.33456055 231.39211426 178.05615234 230.66040039 C176.82469548 227.16136128 176.82469548 227.16136128 174 225 C170.67832788 224.66082815 167.36043844 224.33067269 164.02929688 224.1015625 C162.98418945 223.99714844 162.98418945 223.99714844 161.91796875 223.890625 C161.28656982 223.83938477 160.6551709 223.78814453 160.00463867 223.73535156 C156.70374438 222.52450104 154.71781527 221.0204997 153 218 C151.94586039 213.57588102 151.62361751 209.12468494 151.26953125 204.59765625 C151.08410276 202.59535021 150.89866797 200.59304472 150.71286297 198.59077358 C150.45886939 195.79252617 150.22551801 192.99269711 149.99188232 190.19268799 C149.57955901 185.29629599 149.13714541 180.40255746 148.69108582 175.50914001 C148.45595469 172.90672976 148.22963331 170.30350493 148.01313782 167.69947815 C147.85738533 165.92249794 147.85738533 165.92249794 147.69848633 164.10961914 C147.61141922 163.07213028 147.52435211 162.03464142 147.43464661 160.9657135 C146.82222338 156.78698117 146.25382778 153.09709931 143 150.25 C139.46758355 148.77815981 136.20746001 148.45718539 132.40234375 148.2109375 C128.31767069 146.15199661 127.44510917 142.15785797 126 138 C124.63734587 133.70761892 123.4492916 129.37234352 122.2890625 125.02148438 C122.04929688 124.17263672 121.80953125 123.32378906 121.5625 122.44921875 C121.35753906 121.68955811 121.15257812 120.92989746 120.94140625 120.1472168 C119.69295205 117.29966631 118.45635805 115.93352681 116 114 C113.31831159 112.95579795 110.76103389 112.09043417 108.0078125 111.30078125 C106.39829728 110.80840082 104.78892711 110.31554606 103.1796875 109.82226562 C100.6702037 109.06898296 98.15905444 108.32247165 95.64453125 107.58618164 C83.72077518 104.06853142 72.00258857 100.00258857 63 91 C62.3492031 87.09521862 61.94072967 83.75569675 62.25 79.8125 C62.21745461 76.78928251 62.21745461 76.78928251 59.9375 74.0625 C57.15066227 71.6522361 57.15066227 71.6522361 53.73144531 72.18725586 C49.90800761 73.02003681 46.8724337 74.23161213 43.359375 75.94140625 C42.11099175 76.53126537 40.86228321 77.12043648 39.61328125 77.70898438 C37.6830106 78.63108352 35.75640081 79.55936326 33.83544922 80.50073242 C25.77626065 84.42894025 19.15304769 86.94725819 10 86 C8.375026 85.93682771 6.75002952 85.87422769 5.125 85.8125 C1.92654738 85.38336951 0.85678679 84.90249313 -1.9375 83 C-4.25026266 79.63598158 -4.88720825 77.07434104 -5.4453125 73.0859375 C-6.13387434 70.49655706 -6.79108953 69.521048 -9 68 C-11.78321807 67.79319742 -14.42842851 68.00353246 -17.2109375 68.1875 C-23.04302326 67.79542701 -26.18043951 63.99691435 -29.875 59.8125 C-30.74253906 58.83539063 -31.61007813 57.85828125 -32.50390625 56.8515625 C-33.32761719 55.91054687 -34.15132812 54.96953125 -35 54 C-35.66902344 53.24460938 -36.33804688 52.48921875 -37.02734375 51.7109375 C-38.18203296 50.40212129 -39.32728142 49.08488858 -40.4609375 47.7578125 C-41.95839864 46.00233201 -41.95839864 46.00233201 -43.5390625 44.4921875 C-46.20269875 41.76902865 -47.31027804 39.74739573 -47.36328125 36.015625 C-47.22176976 30.17102287 -45.30954346 25.10293076 -43.25 19.6875 C-42.90195312 18.71232422 -42.55390625 17.73714844 -42.1953125 16.73242188 C-39.02042276 8.166099 -39.02042276 8.166099 -35 5 C-31.87133789 3.97924805 -31.87133789 3.97924805 -28.22265625 3.26171875 C-27.57429306 3.1318306 -26.92592987 3.00194244 -26.25791931 2.86811829 C-24.89188992 2.59798138 -23.52435665 2.33535276 -22.15551758 2.07983398 C-20.06889323 1.6886984 -17.98887383 1.27115105 -15.90820312 0.84960938 C-4.26027379 -1.42377861 -4.26027379 -1.42377861 0 0 Z " fill="#19B974" transform="translate(47,133)"/>
</svg>
